<svg
  xmlns="http://www.w3.org/2000/svg"
  viewBox="0 0 24 24"
  fill="none"
  stroke="none"
>
  <circle cx="12" cy="12" r="6" fill="#ff7c0a" />

  <line
    x1="12"
    y1="2"
    x2="12"
    y2="4"
    stroke="#ff7c0a"
    stroke-width="2"
    stroke-linecap="round"
  />
  <line
    x1="12"
    y1="20"
    x2="12"
    y2="22"
    stroke="#ff7c0a"
    stroke-width="2"
    stroke-linecap="round"
  />
  <line
    x1="4.22"
    y1="4.22"
    x2="5.64"
    y2="5.64"
    stroke="#ff7c0a"
    stroke-width="2"
    stroke-linecap="round"
  />
  <line
    x1="18.36"
    y1="18.36"
    x2="19.78"
    y2="19.78"
    stroke="#ff7c0a"
    stroke-width="2"
    stroke-linecap="round"
  />
  <line
    x1="2"
    y1="12"
    x2="4"
    y2="12"
    stroke="#ff7c0a"
    stroke-width="2"
    stroke-linecap="round"
  />
  <line
    x1="20"
    y1="12"
    x2="22"
    y2="12"
    stroke="#ff7c0a"
    stroke-width="2"
    stroke-linecap="round"
  />
  <line
    x1="4.22"
    y1="19.78"
    x2="5.64"
    y2="18.36"
    stroke="#ff7c0a"
    stroke-width="2"
    stroke-linecap="round"
  />
  <line
    x1="18.36"
    y1="5.64"
    x2="19.78"
    y2="4.22"
    stroke="#ff7c0a"
    stroke-width="2"
    stroke-linecap="round"
  />

  <path
    d="M17.5 18a4.5 4.5 0 0 0 0-9h-1.38A7 7 0 1 0 7 18h10.5z"
    fill="#4455da"
    fill-opacity="0.8"
    transform="translate(26,0) scale(-1, 1) translate(0,5)"
  />
  <text
    x="19"
    y="22"
    font-family="Arial, sans-serif"
    font-size="1.25"
    font-weight="700"
    fill="hsl(240, 6%, 70%)"
    text-anchor="end"
  >
    Weather by VickBK
  </text>
</svg>
